<svg width="154" height="76" viewBox="0 0 154 76" fill="none" xmlns="http://www.w3.org/2000/svg">
<path d="M143.648 1.75031C143.652 1.77122 143.655 1.7923 143.658 1.8143C143.698 2.1557 143.53 2.48378 143.367 2.78833C139.289 10.4243 134.302 19.2232 128.992 26.0829C112.929 46.8368 87.0841 60.5938 60.7767 62.581C51.5916 63.2744 42.2729 62.4214 33.4093 59.9866C29.0994 58.8029 24.7038 56.9861 20.6318 54.9158C16.6531 52.8922 12.3041 50.207 8.21558 47.9372C8.11838 47.8835 7.99993 47.9842 8.00894 48.0942C8.11686 49.3795 7.68723 55.194 7.61114 55.63C7.27011 57.5893 5.56624 57.7446 5.39885 55.554C5.20201 52.9768 5.29088 50.8391 5.35212 48.288C5.37226 47.4317 5.22588 45.6148 5.72701 44.9134C6.3205 44.0831 7.44635 44.0002 8.44073 43.743C10.6802 43.162 13.1871 42.3721 15.5004 42.0843C17.6328 41.8194 20.0717 43.3509 16.6591 44.2037C14.4263 44.7614 11.9301 45.3784 9.6512 45.8156C9.56801 45.8313 9.54892 45.9391 9.62261 45.9794C11.2556 46.8716 14.0472 48.643 15.4024 49.5619C36.7648 64.0501 69.7015 62.699 93.022 51.6035C97.5874 49.4317 101.988 46.917 106.169 44.0843C121.418 33.7526 133.292 16.9614 140.552 3.05365C140.906 2.37433 141.161 1.58138 141.822 1.18649C142.465 0.802834 143.508 1.04226 143.648 1.75031Z" fill="#F2C94C"/>
</svg>
