<svg width="16" height="16" viewBox="0 0 16 16" fill="none" xmlns="http://www.w3.org/2000/svg">
<path d="M13 2.66666H11V1.66666C11 1.57826 10.9649 1.49347 10.9024 1.43096C10.8399 1.36845 10.7551 1.33333 10.6667 1.33333C10.5783 1.33333 10.4935 1.36845 10.431 1.43096C10.3685 1.49347 10.3333 1.57826 10.3333 1.66666V2.66666H5.66668V1.66666C5.66668 1.57826 5.63156 1.49347 5.56905 1.43096C5.50653 1.36845 5.42175 1.33333 5.33334 1.33333C5.24494 1.33333 5.16015 1.36845 5.09764 1.43096C5.03513 1.49347 5.00001 1.57826 5.00001 1.66666V2.66666H3.00001C2.55815 2.66719 2.13453 2.84296 1.82208 3.1554C1.50964 3.46785 1.33387 3.89146 1.33334 4.33333V13C1.33387 13.4419 1.50964 13.8655 1.82208 14.1779C2.13453 14.4904 2.55815 14.6661 3.00001 14.6667H13C13.4419 14.6663 13.8656 14.4906 14.1781 14.1781C14.4906 13.8656 14.6663 13.4419 14.6667 13V4.33333C14.6663 3.89141 14.4906 3.46769 14.1781 3.15521C13.8656 2.84272 13.4419 2.66701 13 2.66666ZM14 13C14 13.2652 13.8947 13.5196 13.7071 13.7071C13.5196 13.8946 13.2652 14 13 14H3.00001C2.73479 14 2.48044 13.8946 2.2929 13.7071C2.10537 13.5196 2.00001 13.2652 2.00001 13V7.33333H14V13ZM14 6.66666H2.00001V4.33333C2.00001 3.78133 2.44668 3.33333 3.00001 3.33333H5.00001V4.33333C5.00001 4.42173 5.03513 4.50652 5.09764 4.56903C5.16015 4.63154 5.24494 4.66666 5.33334 4.66666C5.42175 4.66666 5.50653 4.63154 5.56905 4.56903C5.63156 4.50652 5.66668 4.42173 5.66668 4.33333V3.33333H10.3333V4.33333C10.3333 4.42173 10.3685 4.50652 10.431 4.56903C10.4935 4.63154 10.5783 4.66666 10.6667 4.66666C10.7551 4.66666 10.8399 4.63154 10.9024 4.56903C10.9649 4.50652 11 4.42173 11 4.33333V3.33333H13C13.2652 3.33333 13.5196 3.43868 13.7071 3.62622C13.8947 3.81376 14 4.06811 14 4.33333V6.66666Z" fill="#AAAAAA"/>
</svg>
