<svg width="45" height="47" viewBox="0 0 45 47" fill="none" xmlns="http://www.w3.org/2000/svg">
<path d="M40.0465 17.5471L40.0185 17.5191C40.0162 17.5175 40.0144 17.5154 40.0133 17.513L22.5007 0L4.98835 17.5125C4.98634 17.5146 4.98521 17.5173 4.98317 17.5186L4.95427 17.5466C2.27639 20.2395 0.575467 23.7503 0.121908 27.521C-0.33165 31.2916 0.488183 35.1056 2.45107 38.3569C4.41397 41.6081 7.40727 44.1099 10.9552 45.4644C14.503 46.8189 18.4019 46.9487 22.0319 45.8328C22.3374 45.7394 22.6639 45.7394 22.9694 45.8328C26.5991 46.9482 30.4978 46.8184 34.0454 45.4637C37.5931 44.109 40.5861 41.6074 42.5488 38.3564C44.5116 35.1054 45.3315 31.2916 44.8782 27.5212C44.4248 23.7508 42.7241 20.24 40.0465 17.5471ZM11.2155 29.0955C11.1303 29.1807 11.0627 29.282 11.0166 29.3933C10.9704 29.5045 10.9467 29.6239 10.9467 29.7444C10.9779 32.8353 11.8514 35.8591 13.4733 38.4905C13.5101 38.5502 13.5271 38.6201 13.5219 38.6899C13.5167 38.7598 13.4895 38.8263 13.4441 38.8799C13.3989 38.9335 13.3378 38.9712 13.2697 38.988C13.2016 39.0047 13.1299 38.9995 13.065 38.973C11.8457 38.4602 10.738 37.7147 9.80397 36.7783C7.88973 34.8637 6.81358 32.2675 6.81184 29.5602C6.8101 26.8528 7.88293 24.2553 9.79472 22.3383L22.5007 9.6335L35.2061 22.3383C37.1182 24.255 38.1914 26.8525 38.1896 29.5602C38.188 32.2675 37.1117 34.8637 35.1973 36.7783C34.2632 37.7147 33.1556 38.4602 31.9366 38.973C31.8715 38.9995 31.7998 39.0047 31.7317 38.988C31.6637 38.9712 31.6026 38.9332 31.5571 38.8799C31.5119 38.8263 31.4846 38.7598 31.4794 38.6897C31.4742 38.6198 31.4911 38.55 31.528 38.4903C33.1502 35.8591 34.0242 32.8353 34.0558 29.7444C34.0558 29.6239 34.0319 29.5045 33.9855 29.393C33.9391 29.2816 33.8713 29.1805 33.7858 29.0952L27.7761 22.7208C27.7162 22.6708 27.6409 22.6435 27.5629 22.6435C27.4851 22.6435 27.4096 22.6708 27.3499 22.7208C27.2899 22.7705 27.2497 22.84 27.2357 22.9166C27.2217 22.9933 27.235 23.0722 27.2734 23.14C29.6075 27.3638 27.6004 33.4307 24.2533 36.7783L24.2357 36.7959C23.7737 37.2529 23.1501 37.5091 22.5003 37.5089C21.8504 37.5087 21.2269 37.252 20.7653 36.7948L20.749 36.7783C17.4007 33.4307 15.3947 27.3645 17.7291 23.1409C17.7675 23.0731 17.7809 22.9942 17.7669 22.9175C17.753 22.8409 17.7125 22.7714 17.6527 22.7217C17.5929 22.6717 17.5175 22.6444 17.4396 22.6444C17.3617 22.6444 17.2863 22.6717 17.2265 22.7217L11.2155 29.0955Z" fill="#BDBDBD"/>
</svg>
