<svg width="36" height="34" viewBox="0 0 36 34" fill="none" xmlns="http://www.w3.org/2000/svg">
<path d="M13.358 10.5638C13.5112 10.4115 13.6327 10.2303 13.7155 10.0309C13.7984 9.83139 13.841 9.6175 13.8408 9.4015C13.8406 9.1855 13.7977 8.97168 13.7145 8.77234C13.6313 8.573 13.5095 8.3921 13.3561 8.24004C13.2027 8.088 13.0207 7.96782 12.8206 7.88643C12.6205 7.80504 12.4063 7.76404 12.1903 7.7658C11.9743 7.76757 11.7608 7.81206 11.5621 7.8967C11.3634 7.98136 11.1834 8.10451 11.0325 8.25904C9.66853 9.63684 8.7437 11.3881 8.37487 13.2914C8.00604 15.1947 8.20977 17.1646 8.96032 18.9522C9.71085 20.7397 10.9745 22.2646 12.5915 23.3341C14.2086 24.4037 16.1063 24.9698 18.045 24.9608C19.9837 24.9521 21.8763 24.3686 23.4835 23.2843C25.0907 22.2 26.3403 20.6636 27.0744 18.8692C27.8086 17.0749 27.9943 15.1032 27.6079 13.2033C27.2217 11.3035 26.281 9.56079 24.9044 8.19553C24.7518 8.0442 24.5707 7.92443 24.3716 7.84307C24.1726 7.76172 23.9596 7.72036 23.7444 7.72136C23.5295 7.72236 23.3167 7.76569 23.1185 7.84891C22.9202 7.9321 22.7403 8.05354 22.5889 8.20629C22.4376 8.35902 22.3178 8.54008 22.2366 8.73911C22.1552 8.93813 22.1139 9.15124 22.1147 9.36625C22.1158 9.58125 22.1591 9.79396 22.2423 9.99223C22.3256 10.1905 22.4471 10.3704 22.5997 10.5218C23.5176 11.4315 24.1453 12.593 24.4031 13.8594C24.6609 15.1258 24.5373 16.4402 24.0482 17.6364C23.5591 18.8325 22.7262 19.8569 21.6548 20.5798C20.5836 21.3027 19.3221 21.6916 18.0297 21.6976C16.7374 21.7035 15.4722 21.3261 14.3944 20.613C13.3165 19.9 12.4743 18.8833 11.9742 17.6916C11.4741 16.5 11.3386 15.1868 11.5848 13.9181C11.831 12.6494 12.4479 11.4822 13.3575 10.5641L13.358 10.5638Z" fill="#98A2B3"/>
<path d="M24.8766 0.000215883C23.8013 0.00216148 22.7369 0.217386 21.7452 0.633433C20.7535 1.04948 19.8543 1.65809 19.0994 2.42402C18.7936 2.73201 18.3781 2.9061 17.944 2.90806C17.51 2.91004 17.0928 2.73974 16.7842 2.43452C15.2409 0.908869 13.1554 0.0576475 10.9853 0.067585C8.8152 0.0775228 6.73762 0.947807 5.20833 2.48753C2.70415 5.01699 1.00611 8.23211 0.328851 11.7264C-0.348404 15.2208 0.0255318 18.8375 1.4034 22.1193C2.78125 25.4012 5.1012 28.2009 8.06992 30.1645C11.0387 32.1281 14.5229 33.1675 18.0822 33.1511C21.6416 33.1349 25.1162 32.0637 28.0668 30.0731C31.0176 28.0825 33.3118 25.2617 34.6596 21.9675C36.0074 18.6732 36.3483 15.0531 35.6391 11.5651C34.93 8.07712 33.2027 4.87765 30.6754 2.37118C29.9137 1.6122 29.0089 1.01185 28.0134 0.604873C27.0181 0.197896 25.9519 -0.00761934 24.8766 0.000215883ZM28.3704 4.69689C30.4405 6.74806 31.8558 9.36699 32.4373 12.2225C33.0189 15.0781 32.7408 18.0419 31.6379 20.7393C30.535 23.4368 28.6571 25.7465 26.2414 27.3767C23.8259 29.0067 20.9811 29.884 18.0669 29.8972C15.1528 29.9107 12.3002 29.0596 9.86978 27.4516C7.43936 25.8437 5.54031 23.5511 4.41281 20.8639C3.28531 18.1768 2.97999 15.2155 3.53543 12.3548C4.09088 9.49404 5.48218 6.86226 7.53335 4.79224C8.45102 3.86841 9.69762 3.34625 10.9997 3.34027C12.3019 3.3343 13.5532 3.84502 14.4793 4.7604C15.4052 5.67584 16.6564 6.18661 17.9585 6.18069C19.2605 6.17475 20.5069 5.65257 21.4244 4.72873C22.3413 3.80354 23.5882 3.28042 24.8907 3.27444C26.1932 3.26847 27.4448 3.78013 28.3701 4.69689" fill="#BDBDBD"/>
<path d="M18 18.061C19.4691 18.061 20.6599 16.8701 20.6599 15.401C20.6599 13.932 19.4691 12.7411 18 12.7411C16.5309 12.7411 15.34 13.932 15.34 15.401C15.34 16.8701 16.5309 18.061 18 18.061Z" fill="#BDBDBD"/>
</svg>
