<svg width="36" height="40" viewBox="0 0 36 40" fill="none" xmlns="http://www.w3.org/2000/svg">
<path d="M28.5518 0C26.5771 0.00222632 24.6838 0.787544 23.2874 2.18365C21.8911 3.57977 21.1055 5.47266 21.1034 7.44708V12.4116H14.8966V7.44708C14.8865 5.47863 14.0973 3.59425 12.7016 2.20589C11.3059 0.817539 9.41712 0.0381703 7.4483 0.0381703C5.47947 0.0381703 3.59073 0.817539 2.195 2.20589C0.799271 3.59425 0.0100905 5.47863 0 7.44708V32.2707C0.0100905 34.2391 0.799271 36.1234 2.195 37.5118C3.59073 38.9001 5.47947 39.6796 7.4483 39.6796C9.41712 39.6796 11.3059 38.9001 12.7016 37.5118C14.0973 36.1234 14.8865 34.2391 14.8966 32.2707V29.7883L12.4138 28.5471V32.2707C12.4138 33.2527 12.1226 34.2125 11.5769 35.029C11.0313 35.8454 10.2558 36.4817 9.34841 36.8575C8.44104 37.2332 7.44262 37.3316 6.47938 37.14C5.51616 36.9483 4.63137 36.4756 3.93693 35.7813C3.24249 35.0869 2.76956 34.2022 2.57798 33.2392C2.38642 32.276 2.48477 31.2778 2.86064 30.3706C3.2365 29.4635 3.87299 28.688 4.68961 28.1425C5.50622 27.597 6.46629 27.3059 7.44839 27.3059H28.5518C29.534 27.3059 30.494 27.597 31.3105 28.1427C32.1271 28.6882 32.7635 29.4635 33.1394 30.3707C33.5152 31.278 33.6136 32.2762 33.4219 33.2392C33.2304 34.2024 32.7575 35.0869 32.0629 35.7813C31.3686 36.4756 30.4838 36.9485 29.5205 37.14C28.5573 37.3316 27.5589 37.2332 26.6514 36.8575C25.7442 36.4817 24.9687 35.8454 24.423 35.029C23.8775 34.2125 23.5862 33.2527 23.5862 32.2707V29.7883L21.1034 28.5471V32.2707C21.1136 34.2391 21.9026 36.1234 23.2984 37.5118C24.6942 38.9001 26.583 39.6796 28.5516 39.6796C30.5204 39.6796 32.4092 38.9001 33.805 37.5118C35.2008 36.1234 35.9898 34.2391 36 32.2707V7.44708C35.9978 5.4727 35.2123 3.57983 33.8159 2.18373C32.4198 0.787618 30.5265 0.00227809 28.5518 0ZM23.5862 7.44708C23.5862 6.46514 23.8773 5.50524 24.423 4.68877C24.9687 3.8723 25.744 3.23593 26.6514 2.86013C27.5587 2.48434 28.5571 2.38599 29.5205 2.57753C30.4836 2.76907 31.3684 3.2419 32.0629 3.93622C32.7575 4.63055 33.2304 5.51518 33.4219 6.47824C33.6136 7.44131 33.5152 8.43956 33.1394 9.34675C32.7635 10.2539 32.1271 11.0293 31.3106 11.5749C30.494 12.1204 29.534 12.4116 28.5518 12.4116H23.5862V7.44708ZM7.44839 2.48237C8.76487 2.48391 10.027 3.00749 10.9578 3.93822C11.8887 4.86895 12.4123 6.13085 12.4138 7.44708V12.4116H7.44839C6.79369 12.4157 6.14464 12.2903 5.5386 12.0427C4.93255 11.795 4.38146 11.43 3.91707 10.9686C3.45265 10.5071 3.08409 9.95847 2.8326 9.35408C2.58111 8.74972 2.45163 8.10157 2.45163 7.44699C2.45163 6.79238 2.58111 6.14425 2.8326 5.53987C3.08409 4.93549 3.45265 4.3868 3.91707 3.92538C4.38146 3.46398 4.93255 3.09894 5.5386 2.85129C6.14464 2.60363 6.79369 2.47826 7.44839 2.48237ZM28.5518 24.8231H7.44839C5.61513 24.8215 3.84622 25.4987 2.4828 26.724V12.993C3.84624 14.2182 5.61515 14.8954 7.44839 14.8938H28.5518C30.385 14.8953 32.1539 14.2182 33.5172 12.993V26.724C32.1539 25.4987 30.385 24.8215 28.5518 24.8231Z" fill="#BDBDBD"/>
</svg>
