<svg width="57" height="57" viewBox="0 0 57 57" fill="none" xmlns="http://www.w3.org/2000/svg">
<path fill-rule="evenodd" clip-rule="evenodd" d="M38.8636 20.7273C38.8636 23.4759 37.7717 26.1119 35.8282 28.0555C33.8846 29.9991 31.2486 31.0909 28.5 31.0909C25.7514 31.0909 23.1153 29.9991 21.1718 28.0555C19.2282 26.1119 18.1363 23.4759 18.1363 20.7273C18.1363 17.9787 19.2282 15.3427 21.1718 13.3991C23.1153 11.4555 25.7514 10.3637 28.5 10.3637C31.2486 10.3637 33.8846 11.4555 35.8282 13.3991C37.7717 15.3427 38.8636 17.9787 38.8636 20.7273ZM33.6818 20.7273C33.6818 22.1016 33.1358 23.4196 32.1641 24.3914C31.1923 25.3632 29.8743 25.9091 28.5 25.9091C27.1257 25.9091 25.8077 25.3632 24.8359 24.3914C23.8641 23.4196 23.3182 22.1016 23.3182 20.7273C23.3182 19.353 23.8641 18.035 24.8359 17.0632C25.8077 16.0914 27.1257 15.5455 28.5 15.5455C29.8743 15.5455 31.1923 16.0914 32.1641 17.0632C33.1358 18.035 33.6818 19.353 33.6818 20.7273Z" fill="#AAAAAA"/>
<path fill-rule="evenodd" clip-rule="evenodd" d="M28.5 0C12.7602 0 0 12.7602 0 28.5C0 44.2397 12.7602 57 28.5 57C44.2397 57 57 44.2397 57 28.5C57 12.7602 44.2397 0 28.5 0ZM5.18181 28.5C5.18181 33.915 7.02913 38.8999 10.1253 42.8588C12.2996 40.0033 15.1047 37.6893 18.3214 36.0973C21.5381 34.5054 25.0793 33.6787 28.6684 33.6818C32.211 33.6784 35.7077 34.4837 38.8919 36.0364C42.0762 37.589 44.8641 39.848 47.0431 42.6411C49.288 39.6969 50.7995 36.2603 51.4526 32.6159C52.1056 28.9714 51.8814 25.2239 50.7986 21.6833C49.7158 18.1427 47.8054 14.9108 45.2255 12.2551C42.6457 9.59938 39.4705 7.59618 35.9628 6.41122C32.455 5.22627 28.7155 4.89363 25.0537 5.44084C21.3919 5.98804 17.913 7.39935 14.9049 9.558C11.8968 11.7166 9.44596 14.5606 7.75518 17.8544C6.0644 21.1483 5.18228 24.7975 5.18181 28.5ZM28.5 51.8181C23.147 51.8262 17.9557 49.9847 13.8044 46.6052C15.4753 44.2131 17.6994 42.2601 20.2873 40.9122C22.8752 39.5643 25.7505 38.8615 28.6684 38.8636C31.5499 38.8613 34.3904 39.5465 36.9539 40.8623C39.5175 42.1781 41.7301 44.0865 43.4081 46.4291C39.2245 49.9182 33.9476 51.8258 28.5 51.8181Z" fill="#AAAAAA"/>
</svg>
