<svg width="36" height="34" viewBox="0 0 36 34" fill="none" xmlns="http://www.w3.org/2000/svg">
<path d="M13.358 10.5637C13.5112 10.4114 13.6327 10.2303 13.7155 10.0309C13.7984 9.83139 13.841 9.61749 13.8408 9.40149C13.8406 9.1855 13.7977 8.97167 13.7145 8.77233C13.6313 8.573 13.5095 8.39209 13.3561 8.24003C13.2027 8.08799 13.0206 7.96781 12.8206 7.88642C12.6205 7.80503 12.4063 7.76403 12.1903 7.76579C11.9743 7.76756 11.7608 7.81205 11.5621 7.89669C11.3634 7.98135 11.1834 8.1045 11.0324 8.25904C9.66852 9.63683 8.7437 11.3881 8.37487 13.2914C8.00604 15.1947 8.20976 17.1646 8.96031 18.9521C9.71084 20.7397 10.9745 22.2646 12.5915 23.334C14.2085 24.4037 16.1063 24.9698 18.045 24.9608C19.9836 24.952 21.8763 24.3686 23.4835 23.2843C25.0906 22.2 26.3403 20.6636 27.0744 18.8692C27.8086 17.0749 27.9943 15.1032 27.6079 13.2033C27.2217 11.3035 26.2809 9.56078 24.9044 8.19553C24.7518 8.04419 24.5707 7.92442 24.3716 7.84307C24.1726 7.76171 23.9595 7.72035 23.7444 7.72135C23.5294 7.72235 23.3167 7.76569 23.1184 7.8489C22.9202 7.9321 22.7403 8.05354 22.5889 8.20628C22.4376 8.35901 22.3178 8.54007 22.2366 8.7391C22.1551 8.93812 22.1138 9.15123 22.1147 9.36625C22.1157 9.58124 22.1591 9.79395 22.2422 9.99222C22.3255 10.1905 22.447 10.3704 22.5997 10.5217C23.5176 11.4315 24.1452 12.593 24.4031 13.8594C24.6609 15.1258 24.5373 16.4402 24.0482 17.6364C23.559 18.8325 22.7262 19.8569 21.6548 20.5798C20.5836 21.3026 19.3221 21.6916 18.0297 21.6976C16.7373 21.7035 15.4722 21.326 14.3944 20.613C13.3165 19.9 12.4743 18.8833 11.9742 17.6916C11.4741 16.5 11.3386 15.1868 11.5848 13.9181C11.831 12.6494 12.4479 11.4822 13.3575 10.5641L13.358 10.5637Z" fill="#BDBDBD"/>
<path d="M24.8766 0.000215883C23.8012 0.00216148 22.7369 0.217385 21.7452 0.633432C20.7535 1.04948 19.8543 1.65808 19.0994 2.42402C18.7936 2.73201 18.3781 2.90609 17.944 2.90805C17.51 2.91003 17.0928 2.73973 16.7842 2.43452C15.2409 0.908868 13.1554 0.0576474 10.9853 0.067585C8.81519 0.0775227 6.73762 0.947806 5.20833 2.48752C2.70415 5.01699 1.00611 8.2321 0.32885 11.7264C-0.348404 15.2208 0.0255318 18.8375 1.4034 22.1193C2.78125 25.4012 5.10119 28.2009 8.06991 30.1645C11.0386 32.1281 14.5229 33.1674 18.0822 33.1511C21.6416 33.1349 25.1161 32.0637 28.0668 30.0731C31.0176 28.0825 33.3118 25.2616 34.6596 21.9675C36.0074 18.6731 36.3483 15.0531 35.639 11.5651C34.93 8.07712 33.2027 4.87765 30.6754 2.37118C29.9137 1.6122 29.0089 1.01185 28.0134 0.604873C27.0181 0.197896 25.9519 -0.00761934 24.8766 0.000215883ZM28.3704 4.69688C30.4405 6.74806 31.8557 9.36698 32.4373 12.2225C33.0189 15.078 32.7407 18.0418 31.6379 20.7393C30.535 23.4368 28.6571 25.7465 26.2414 27.3767C23.8258 29.0067 20.9811 29.884 18.0669 29.8972C15.1528 29.9106 12.3002 29.0596 9.86977 27.4515C7.43936 25.8437 5.54031 23.551 4.41281 20.8639C3.28531 18.1768 2.97999 15.2155 3.53543 12.3548C4.09088 9.49403 5.48217 6.86225 7.53334 4.79223C8.45101 3.8684 9.69761 3.34624 10.9997 3.34027C12.3019 3.3343 13.5532 3.84501 14.4793 4.76039C15.4052 5.67584 16.6564 6.18661 17.9585 6.18068C19.2605 6.17475 20.5069 5.65257 21.4244 4.72872C22.3412 3.80354 23.5882 3.28041 24.8907 3.27444C26.1932 3.26847 27.4448 3.78013 28.37 4.69688" fill="#BDBDBD"/>
<path d="M18 18.0609C19.4691 18.0609 20.6599 16.8701 20.6599 15.401C20.6599 13.932 19.4691 12.7411 18 12.7411C16.5309 12.7411 15.34 13.932 15.34 15.401C15.34 16.8701 16.5309 18.0609 18 18.0609Z" fill="#00AB9E"/>
</svg>
